<mxfile host="app.diagrams.net" modified="2024-01-28T19:11:34.414Z" agent="Mozilla/5.0 (Windows NT 10.0; Win64; x64; rv:122.0) Gecko/20100101 Firefox/122.0" etag="1IOF1E0ZIBtZLWi7HW3p" version="23.0.2" type="device">
  <diagram name="PÃ¡gina-1" id="8TrK6Ln6GTz2HB8w70DH">
    <mxGraphModel dx="2021" dy="1885" grid="1" gridSize="10" guides="1" tooltips="1" connect="1" arrows="1" fold="1" page="1" pageScale="1" pageWidth="827" pageHeight="1169" math="0" shadow="0">
      <root>
        <mxCell id="0" />
        <mxCell id="1" parent="0" />
        <mxCell id="T8nLrzzy6BjlIzG81fVo-46" value="" style="rounded=0;whiteSpace=wrap;html=1;strokeWidth=4;" vertex="1" parent="1">
          <mxGeometry x="-120" y="760" width="1230" height="750" as="geometry" />
        </mxCell>
        <mxCell id="T8nLrzzy6BjlIzG81fVo-86" value="" style="rounded=0;whiteSpace=wrap;html=1;fillColor=#dae8fc;strokeColor=#6c8ebf;strokeWidth=4;" vertex="1" parent="1">
          <mxGeometry x="228.27" y="850" width="851.73" height="610" as="geometry" />
        </mxCell>
        <mxCell id="T8nLrzzy6BjlIzG81fVo-1" value="" style="rounded=0;whiteSpace=wrap;html=1;strokeWidth=4;" vertex="1" parent="1">
          <mxGeometry x="-120" y="-120" width="1230" height="750" as="geometry" />
        </mxCell>
        <mxCell id="T8nLrzzy6BjlIzG81fVo-37" value="" style="rounded=0;whiteSpace=wrap;html=1;strokeWidth=4;dashed=1;" vertex="1" parent="1">
          <mxGeometry x="920" y="55" width="140" height="140" as="geometry" />
        </mxCell>
        <mxCell id="T8nLrzzy6BjlIzG81fVo-36" value="" style="rounded=0;whiteSpace=wrap;html=1;strokeWidth=4;dashed=1;" vertex="1" parent="1">
          <mxGeometry x="749" y="55" width="140" height="140" as="geometry" />
        </mxCell>
        <mxCell id="T8nLrzzy6BjlIzG81fVo-35" value="" style="rounded=0;whiteSpace=wrap;html=1;strokeWidth=4;dashed=1;" vertex="1" parent="1">
          <mxGeometry x="580" y="55" width="140" height="140" as="geometry" />
        </mxCell>
        <mxCell id="T8nLrzzy6BjlIzG81fVo-34" value="" style="rounded=0;whiteSpace=wrap;html=1;strokeWidth=4;dashed=1;" vertex="1" parent="1">
          <mxGeometry x="420" y="55" width="140" height="140" as="geometry" />
        </mxCell>
        <mxCell id="T8nLrzzy6BjlIzG81fVo-27" value="" style="rounded=0;whiteSpace=wrap;html=1;strokeWidth=4;dashed=1;" vertex="1" parent="1">
          <mxGeometry x="250" y="55" width="140" height="140" as="geometry" />
        </mxCell>
        <mxCell id="T8nLrzzy6BjlIzG81fVo-15" value="" style="rounded=0;whiteSpace=wrap;html=1;strokeWidth=4;dashed=1;" vertex="1" parent="1">
          <mxGeometry x="-70" y="-30" width="280" height="610" as="geometry" />
        </mxCell>
        <mxCell id="T8nLrzzy6BjlIzG81fVo-2" value="" style="shape=mxgraph.cisco.wireless.wlan_controller;html=1;pointerEvents=1;dashed=0;fillColor=#b1ddf0;strokeColor=#10739e;strokeWidth=2;verticalLabelPosition=bottom;verticalAlign=top;align=center;outlineConnect=0;" vertex="1" parent="1">
          <mxGeometry x="100" y="190" width="70" height="40" as="geometry" />
        </mxCell>
        <mxCell id="T8nLrzzy6BjlIzG81fVo-3" value="" style="image;html=1;image=img/lib/clip_art/networking/Switch_128x128.png" vertex="1" parent="1">
          <mxGeometry x="100" y="280" width="70" height="60" as="geometry" />
        </mxCell>
        <mxCell id="T8nLrzzy6BjlIzG81fVo-4" value="" style="image;html=1;image=img/lib/clip_art/computers/Netbook_128x128.png" vertex="1" parent="1">
          <mxGeometry x="20" y="70" width="80" height="80" as="geometry" />
        </mxCell>
        <mxCell id="T8nLrzzy6BjlIzG81fVo-5" value="" style="sketch=0;aspect=fixed;pointerEvents=1;shadow=0;dashed=0;html=1;strokeColor=none;labelPosition=center;verticalLabelPosition=bottom;verticalAlign=top;align=center;fillColor=#00188D;shape=mxgraph.mscae.enterprise.wireless_connection;rotation=-122;" vertex="1" parent="1">
          <mxGeometry x="90" y="140" width="42" height="50" as="geometry" />
        </mxCell>
        <mxCell id="T8nLrzzy6BjlIzG81fVo-6" value="" style="image;html=1;image=img/lib/clip_art/computers/Netbook_128x128.png" vertex="1" parent="1">
          <mxGeometry x="-40" y="210" width="80" height="80" as="geometry" />
        </mxCell>
        <mxCell id="T8nLrzzy6BjlIzG81fVo-7" value="" style="image;html=1;image=img/lib/clip_art/computers/Netbook_128x128.png" vertex="1" parent="1">
          <mxGeometry x="-40" y="330" width="80" height="80" as="geometry" />
        </mxCell>
        <mxCell id="T8nLrzzy6BjlIzG81fVo-8" value="" style="endArrow=none;html=1;rounded=0;strokeWidth=4;entryX=0.725;entryY=0.609;entryDx=0;entryDy=0;entryPerimeter=0;" edge="1" parent="1">
          <mxGeometry width="50" height="50" relative="1" as="geometry">
            <mxPoint x="129" y="292" as="sourcePoint" />
            <mxPoint x="129.25" y="231.9999999999999" as="targetPoint" />
          </mxGeometry>
        </mxCell>
        <mxCell id="T8nLrzzy6BjlIzG81fVo-9" value="" style="endArrow=none;html=1;rounded=0;strokeWidth=4;exitX=1;exitY=0.5;exitDx=0;exitDy=0;" edge="1" parent="1" source="T8nLrzzy6BjlIzG81fVo-7">
          <mxGeometry width="50" height="50" relative="1" as="geometry">
            <mxPoint x="50" y="368.66222222222217" as="sourcePoint" />
            <mxPoint x="110" y="326.55976608187143" as="targetPoint" />
          </mxGeometry>
        </mxCell>
        <mxCell id="T8nLrzzy6BjlIzG81fVo-10" value="" style="endArrow=none;html=1;rounded=0;strokeWidth=4;" edge="1" parent="1" source="T8nLrzzy6BjlIzG81fVo-6">
          <mxGeometry width="50" height="50" relative="1" as="geometry">
            <mxPoint x="30" y="240.00325536062385" as="sourcePoint" />
            <mxPoint x="110" y="297.7097660818714" as="targetPoint" />
          </mxGeometry>
        </mxCell>
        <mxCell id="T8nLrzzy6BjlIzG81fVo-11" value="" style="image;html=1;image=img/lib/clip_art/networking/Switch_128x128.png" vertex="1" parent="1">
          <mxGeometry x="100" y="400" width="70" height="60" as="geometry" />
        </mxCell>
        <mxCell id="T8nLrzzy6BjlIzG81fVo-13" value="" style="verticalLabelPosition=bottom;sketch=0;aspect=fixed;html=1;verticalAlign=top;strokeColor=none;align=center;outlineConnect=0;shape=mxgraph.citrix.ip_phone;" vertex="1" parent="1">
          <mxGeometry x="-38.25" y="480" width="76.5" height="37" as="geometry" />
        </mxCell>
        <mxCell id="T8nLrzzy6BjlIzG81fVo-14" value="" style="endArrow=none;html=1;rounded=0;strokeWidth=4;" edge="1" parent="1">
          <mxGeometry width="50" height="50" relative="1" as="geometry">
            <mxPoint x="24.23530162529869" y="483" as="sourcePoint" />
            <mxPoint x="103.25" y="432.9997660818714" as="targetPoint" />
          </mxGeometry>
        </mxCell>
        <mxCell id="T8nLrzzy6BjlIzG81fVo-16" value="LAN" style="text;html=1;strokeColor=none;fillColor=none;align=center;verticalAlign=middle;whiteSpace=wrap;rounded=0;fontSize=16;fontStyle=1" vertex="1" parent="1">
          <mxGeometry x="-15" y="-10" width="170" height="30" as="geometry" />
        </mxCell>
        <mxCell id="T8nLrzzy6BjlIzG81fVo-17" value="BRACH OFFICE" style="text;html=1;strokeColor=none;fillColor=none;align=center;verticalAlign=middle;whiteSpace=wrap;rounded=0;fontSize=16;fontStyle=1" vertex="1" parent="1">
          <mxGeometry x="-60" y="-100" width="170" height="30" as="geometry" />
        </mxCell>
        <mxCell id="T8nLrzzy6BjlIzG81fVo-18" value="" style="image;html=1;image=img/lib/clip_art/networking/Router_Icon_128x128.png" vertex="1" parent="1">
          <mxGeometry x="610" y="335" width="80" height="80" as="geometry" />
        </mxCell>
        <mxCell id="T8nLrzzy6BjlIzG81fVo-20" value="" style="sketch=0;outlineConnect=0;fillColor=#1ba1e2;strokeColor=#006EAF;dashed=0;verticalLabelPosition=bottom;verticalAlign=top;align=center;html=1;fontSize=12;fontStyle=0;aspect=fixed;shape=mxgraph.aws4.email;fontColor=#ffffff;" vertex="1" parent="1">
          <mxGeometry x="291.74" y="65" width="56.53" height="50" as="geometry" />
        </mxCell>
        <mxCell id="T8nLrzzy6BjlIzG81fVo-21" value="" style="image;aspect=fixed;perimeter=ellipsePerimeter;html=1;align=center;shadow=0;dashed=0;spacingTop=3;image=img/lib/active_directory/web_server.svg;" vertex="1" parent="1">
          <mxGeometry x="466" y="65" width="48" height="60" as="geometry" />
        </mxCell>
        <mxCell id="T8nLrzzy6BjlIzG81fVo-22" value="" style="shape=mxgraph.cisco.misc.wae;html=1;pointerEvents=1;dashed=0;fillColor=#0050ef;strokeColor=#001DBC;strokeWidth=2;verticalLabelPosition=bottom;verticalAlign=top;align=center;outlineConnect=0;fontColor=#ffffff;" vertex="1" parent="1">
          <mxGeometry x="620" y="70" width="60" height="40" as="geometry" />
        </mxCell>
        <mxCell id="T8nLrzzy6BjlIzG81fVo-23" value="" style="sketch=0;points=[[0.015,0.015,0],[0.985,0.015,0],[0.985,0.985,0],[0.015,0.985,0],[0.25,0,0],[0.5,0,0],[0.75,0,0],[1,0.25,0],[1,0.5,0],[1,0.75,0],[0.75,1,0],[0.5,1,0],[0.25,1,0],[0,0.75,0],[0,0.5,0],[0,0.25,0]];verticalLabelPosition=bottom;html=1;verticalAlign=top;aspect=fixed;align=center;pointerEvents=1;shape=mxgraph.cisco19.rect;prIcon=ucs_5108_blade_chassis;fillColor=#FAFAFA;strokeColor=#005073;" vertex="1" parent="1">
          <mxGeometry x="780" y="70" width="64" height="50" as="geometry" />
        </mxCell>
        <mxCell id="T8nLrzzy6BjlIzG81fVo-24" value="" style="image;html=1;image=img/lib/clip_art/networking/Firewall_128x128.png" vertex="1" parent="1">
          <mxGeometry x="965" y="65" width="50" height="70" as="geometry" />
        </mxCell>
        <mxCell id="T8nLrzzy6BjlIzG81fVo-28" value="EMAIL" style="text;html=1;strokeColor=none;fillColor=none;align=center;verticalAlign=middle;whiteSpace=wrap;rounded=0;fontSize=16;fontStyle=1" vertex="1" parent="1">
          <mxGeometry x="235" y="145" width="170" height="30" as="geometry" />
        </mxCell>
        <mxCell id="T8nLrzzy6BjlIzG81fVo-29" value="WAAS" style="text;html=1;strokeColor=none;fillColor=none;align=center;verticalAlign=middle;whiteSpace=wrap;rounded=0;fontSize=16;fontStyle=1" vertex="1" parent="1">
          <mxGeometry x="565" y="150" width="170" height="30" as="geometry" />
        </mxCell>
        <mxCell id="T8nLrzzy6BjlIzG81fVo-30" value="WEB" style="text;html=1;strokeColor=none;fillColor=none;align=center;verticalAlign=middle;whiteSpace=wrap;rounded=0;fontSize=16;fontStyle=1" vertex="1" parent="1">
          <mxGeometry x="405" y="150" width="170" height="30" as="geometry" />
        </mxCell>
        <mxCell id="T8nLrzzy6BjlIzG81fVo-31" value="UC" style="text;html=1;strokeColor=none;fillColor=none;align=center;verticalAlign=middle;whiteSpace=wrap;rounded=0;fontSize=16;fontStyle=1" vertex="1" parent="1">
          <mxGeometry x="727" y="150" width="170" height="30" as="geometry" />
        </mxCell>
        <mxCell id="T8nLrzzy6BjlIzG81fVo-32" value="FIREWALL" style="text;html=1;strokeColor=none;fillColor=none;align=center;verticalAlign=middle;whiteSpace=wrap;rounded=0;fontSize=16;fontStyle=1" vertex="1" parent="1">
          <mxGeometry x="900" y="150" width="170" height="30" as="geometry" />
        </mxCell>
        <mxCell id="T8nLrzzy6BjlIzG81fVo-38" value="" style="endArrow=none;html=1;rounded=0;strokeWidth=5;entryX=0.571;entryY=1.036;entryDx=0;entryDy=0;entryPerimeter=0;" edge="1" parent="1">
          <mxGeometry width="50" height="50" relative="1" as="geometry">
            <mxPoint x="320" y="197" as="sourcePoint" />
            <mxPoint x="999.94" y="202.03999999999996" as="targetPoint" />
            <Array as="points">
              <mxPoint x="320" y="272" />
              <mxPoint x="1000" y="272" />
            </Array>
          </mxGeometry>
        </mxCell>
        <mxCell id="T8nLrzzy6BjlIzG81fVo-39" value="" style="endArrow=none;html=1;rounded=0;strokeWidth=4;" edge="1" parent="1">
          <mxGeometry width="50" height="50" relative="1" as="geometry">
            <mxPoint x="494.5" y="275" as="sourcePoint" />
            <mxPoint x="494.5" y="195" as="targetPoint" />
          </mxGeometry>
        </mxCell>
        <mxCell id="T8nLrzzy6BjlIzG81fVo-40" value="" style="endArrow=none;html=1;rounded=0;strokeWidth=4;" edge="1" parent="1">
          <mxGeometry width="50" height="50" relative="1" as="geometry">
            <mxPoint x="650" y="275" as="sourcePoint" />
            <mxPoint x="650" y="195" as="targetPoint" />
          </mxGeometry>
        </mxCell>
        <mxCell id="T8nLrzzy6BjlIzG81fVo-41" value="" style="endArrow=none;html=1;rounded=0;strokeWidth=4;" edge="1" parent="1">
          <mxGeometry width="50" height="50" relative="1" as="geometry">
            <mxPoint x="816.5" y="273" as="sourcePoint" />
            <mxPoint x="816.5" y="193" as="targetPoint" />
          </mxGeometry>
        </mxCell>
        <mxCell id="T8nLrzzy6BjlIzG81fVo-42" value="" style="endArrow=none;html=1;rounded=0;strokeWidth=4;" edge="1" parent="1">
          <mxGeometry width="50" height="50" relative="1" as="geometry">
            <mxPoint x="649.5" y="350" as="sourcePoint" />
            <mxPoint x="649.5" y="270" as="targetPoint" />
          </mxGeometry>
        </mxCell>
        <mxCell id="T8nLrzzy6BjlIzG81fVo-43" value="" style="image;aspect=fixed;perimeter=ellipsePerimeter;html=1;align=center;shadow=0;dashed=0;spacingTop=3;image=img/lib/active_directory/internet_cloud.svg;" vertex="1" parent="1">
          <mxGeometry x="-530" y="220" width="210" height="132.3" as="geometry" />
        </mxCell>
        <mxCell id="T8nLrzzy6BjlIzG81fVo-44" value="FABRIC ENTERPRISE" style="text;html=1;align=center;verticalAlign=middle;whiteSpace=wrap;rounded=0;fontSize=16;fontStyle=1;fontColor=#FFFFFF;" vertex="1" parent="1">
          <mxGeometry x="-510" y="271.15" width="170" height="30" as="geometry" />
        </mxCell>
        <mxCell id="T8nLrzzy6BjlIzG81fVo-45" value="" style="endArrow=none;html=1;rounded=0;strokeWidth=4;exitX=1.005;exitY=0.454;exitDx=0;exitDy=0;exitPerimeter=0;" edge="1" parent="1" source="T8nLrzzy6BjlIzG81fVo-43">
          <mxGeometry width="50" height="50" relative="1" as="geometry">
            <mxPoint x="-310" y="280" as="sourcePoint" />
            <mxPoint x="-130" y="280" as="targetPoint" />
          </mxGeometry>
        </mxCell>
        <mxCell id="T8nLrzzy6BjlIzG81fVo-47" value="" style="rounded=0;whiteSpace=wrap;html=1;strokeWidth=4;dashed=1;" vertex="1" parent="1">
          <mxGeometry x="920" y="935" width="140" height="140" as="geometry" />
        </mxCell>
        <mxCell id="T8nLrzzy6BjlIzG81fVo-48" value="" style="rounded=0;whiteSpace=wrap;html=1;strokeWidth=4;dashed=1;" vertex="1" parent="1">
          <mxGeometry x="749" y="935" width="140" height="140" as="geometry" />
        </mxCell>
        <mxCell id="T8nLrzzy6BjlIzG81fVo-49" value="" style="rounded=0;whiteSpace=wrap;html=1;strokeWidth=4;dashed=1;" vertex="1" parent="1">
          <mxGeometry x="580" y="935" width="140" height="140" as="geometry" />
        </mxCell>
        <mxCell id="T8nLrzzy6BjlIzG81fVo-50" value="" style="rounded=0;whiteSpace=wrap;html=1;strokeWidth=4;dashed=1;" vertex="1" parent="1">
          <mxGeometry x="420" y="935" width="140" height="140" as="geometry" />
        </mxCell>
        <mxCell id="T8nLrzzy6BjlIzG81fVo-51" value="" style="rounded=0;whiteSpace=wrap;html=1;strokeWidth=4;dashed=1;" vertex="1" parent="1">
          <mxGeometry x="250" y="935" width="140" height="140" as="geometry" />
        </mxCell>
        <mxCell id="T8nLrzzy6BjlIzG81fVo-52" value="" style="rounded=0;whiteSpace=wrap;html=1;strokeWidth=4;dashed=1;" vertex="1" parent="1">
          <mxGeometry x="-70" y="850" width="280" height="610" as="geometry" />
        </mxCell>
        <mxCell id="T8nLrzzy6BjlIzG81fVo-53" value="" style="shape=mxgraph.cisco.wireless.wlan_controller;html=1;pointerEvents=1;dashed=0;fillColor=#b1ddf0;strokeColor=#10739e;strokeWidth=2;verticalLabelPosition=bottom;verticalAlign=top;align=center;outlineConnect=0;" vertex="1" parent="1">
          <mxGeometry x="100" y="1070" width="70" height="40" as="geometry" />
        </mxCell>
        <mxCell id="T8nLrzzy6BjlIzG81fVo-54" value="" style="image;html=1;image=img/lib/clip_art/networking/Switch_128x128.png" vertex="1" parent="1">
          <mxGeometry x="100" y="1160" width="70" height="60" as="geometry" />
        </mxCell>
        <mxCell id="T8nLrzzy6BjlIzG81fVo-55" value="" style="image;html=1;image=img/lib/clip_art/computers/Netbook_128x128.png" vertex="1" parent="1">
          <mxGeometry x="20" y="950" width="80" height="80" as="geometry" />
        </mxCell>
        <mxCell id="T8nLrzzy6BjlIzG81fVo-56" value="" style="sketch=0;aspect=fixed;pointerEvents=1;shadow=0;dashed=0;html=1;strokeColor=none;labelPosition=center;verticalLabelPosition=bottom;verticalAlign=top;align=center;fillColor=#00188D;shape=mxgraph.mscae.enterprise.wireless_connection;rotation=-122;" vertex="1" parent="1">
          <mxGeometry x="90" y="1020" width="42" height="50" as="geometry" />
        </mxCell>
        <mxCell id="T8nLrzzy6BjlIzG81fVo-57" value="" style="image;html=1;image=img/lib/clip_art/computers/Netbook_128x128.png" vertex="1" parent="1">
          <mxGeometry x="-40" y="1090" width="80" height="80" as="geometry" />
        </mxCell>
        <mxCell id="T8nLrzzy6BjlIzG81fVo-58" value="" style="image;html=1;image=img/lib/clip_art/computers/Netbook_128x128.png" vertex="1" parent="1">
          <mxGeometry x="-40" y="1210" width="80" height="80" as="geometry" />
        </mxCell>
        <mxCell id="T8nLrzzy6BjlIzG81fVo-59" value="" style="endArrow=none;html=1;rounded=0;strokeWidth=4;entryX=0.725;entryY=0.609;entryDx=0;entryDy=0;entryPerimeter=0;" edge="1" parent="1">
          <mxGeometry width="50" height="50" relative="1" as="geometry">
            <mxPoint x="129" y="1172" as="sourcePoint" />
            <mxPoint x="129.25" y="1112" as="targetPoint" />
          </mxGeometry>
        </mxCell>
        <mxCell id="T8nLrzzy6BjlIzG81fVo-60" value="" style="endArrow=none;html=1;rounded=0;strokeWidth=4;exitX=1;exitY=0.5;exitDx=0;exitDy=0;" edge="1" parent="1" source="T8nLrzzy6BjlIzG81fVo-58">
          <mxGeometry width="50" height="50" relative="1" as="geometry">
            <mxPoint x="50" y="1248.6622222222222" as="sourcePoint" />
            <mxPoint x="110" y="1206.5597660818714" as="targetPoint" />
          </mxGeometry>
        </mxCell>
        <mxCell id="T8nLrzzy6BjlIzG81fVo-61" value="" style="endArrow=none;html=1;rounded=0;strokeWidth=4;" edge="1" parent="1" source="T8nLrzzy6BjlIzG81fVo-57">
          <mxGeometry width="50" height="50" relative="1" as="geometry">
            <mxPoint x="30" y="1120.0032553606238" as="sourcePoint" />
            <mxPoint x="110" y="1177.7097660818713" as="targetPoint" />
          </mxGeometry>
        </mxCell>
        <mxCell id="T8nLrzzy6BjlIzG81fVo-62" value="" style="image;html=1;image=img/lib/clip_art/networking/Switch_128x128.png" vertex="1" parent="1">
          <mxGeometry x="100" y="1280" width="70" height="60" as="geometry" />
        </mxCell>
        <mxCell id="T8nLrzzy6BjlIzG81fVo-63" value="" style="verticalLabelPosition=bottom;sketch=0;aspect=fixed;html=1;verticalAlign=top;strokeColor=none;align=center;outlineConnect=0;shape=mxgraph.citrix.ip_phone;" vertex="1" parent="1">
          <mxGeometry x="-38.25" y="1360" width="76.5" height="37" as="geometry" />
        </mxCell>
        <mxCell id="T8nLrzzy6BjlIzG81fVo-64" value="" style="endArrow=none;html=1;rounded=0;strokeWidth=4;" edge="1" parent="1">
          <mxGeometry width="50" height="50" relative="1" as="geometry">
            <mxPoint x="24.23530162529869" y="1363" as="sourcePoint" />
            <mxPoint x="103.25" y="1312.9997660818715" as="targetPoint" />
          </mxGeometry>
        </mxCell>
        <mxCell id="T8nLrzzy6BjlIzG81fVo-65" value="LAN" style="text;html=1;strokeColor=none;fillColor=none;align=center;verticalAlign=middle;whiteSpace=wrap;rounded=0;fontSize=16;fontStyle=1" vertex="1" parent="1">
          <mxGeometry x="-15" y="870" width="170" height="30" as="geometry" />
        </mxCell>
        <mxCell id="T8nLrzzy6BjlIzG81fVo-66" value="BRACH OFFICE" style="text;html=1;strokeColor=none;fillColor=none;align=center;verticalAlign=middle;whiteSpace=wrap;rounded=0;fontSize=16;fontStyle=1" vertex="1" parent="1">
          <mxGeometry x="-60" y="780" width="170" height="30" as="geometry" />
        </mxCell>
        <mxCell id="T8nLrzzy6BjlIzG81fVo-67" value="" style="image;html=1;image=img/lib/clip_art/networking/Router_Icon_128x128.png" vertex="1" parent="1">
          <mxGeometry x="610" y="1215" width="80" height="80" as="geometry" />
        </mxCell>
        <mxCell id="T8nLrzzy6BjlIzG81fVo-68" value="" style="sketch=0;outlineConnect=0;fillColor=#1ba1e2;strokeColor=#006EAF;dashed=0;verticalLabelPosition=bottom;verticalAlign=top;align=center;html=1;fontSize=12;fontStyle=0;aspect=fixed;shape=mxgraph.aws4.email;fontColor=#ffffff;" vertex="1" parent="1">
          <mxGeometry x="291.74" y="945" width="56.53" height="50" as="geometry" />
        </mxCell>
        <mxCell id="T8nLrzzy6BjlIzG81fVo-69" value="" style="image;aspect=fixed;perimeter=ellipsePerimeter;html=1;align=center;shadow=0;dashed=0;spacingTop=3;image=img/lib/active_directory/web_server.svg;" vertex="1" parent="1">
          <mxGeometry x="466" y="945" width="48" height="60" as="geometry" />
        </mxCell>
        <mxCell id="T8nLrzzy6BjlIzG81fVo-70" value="" style="shape=mxgraph.cisco.misc.wae;html=1;pointerEvents=1;dashed=0;fillColor=#0050ef;strokeColor=#001DBC;strokeWidth=2;verticalLabelPosition=bottom;verticalAlign=top;align=center;outlineConnect=0;fontColor=#ffffff;" vertex="1" parent="1">
          <mxGeometry x="620" y="950" width="60" height="40" as="geometry" />
        </mxCell>
        <mxCell id="T8nLrzzy6BjlIzG81fVo-71" value="" style="sketch=0;points=[[0.015,0.015,0],[0.985,0.015,0],[0.985,0.985,0],[0.015,0.985,0],[0.25,0,0],[0.5,0,0],[0.75,0,0],[1,0.25,0],[1,0.5,0],[1,0.75,0],[0.75,1,0],[0.5,1,0],[0.25,1,0],[0,0.75,0],[0,0.5,0],[0,0.25,0]];verticalLabelPosition=bottom;html=1;verticalAlign=top;aspect=fixed;align=center;pointerEvents=1;shape=mxgraph.cisco19.rect;prIcon=ucs_5108_blade_chassis;fillColor=#FAFAFA;strokeColor=#005073;" vertex="1" parent="1">
          <mxGeometry x="780" y="950" width="64" height="50" as="geometry" />
        </mxCell>
        <mxCell id="T8nLrzzy6BjlIzG81fVo-72" value="" style="image;html=1;image=img/lib/clip_art/networking/Firewall_128x128.png" vertex="1" parent="1">
          <mxGeometry x="965" y="945" width="50" height="70" as="geometry" />
        </mxCell>
        <mxCell id="T8nLrzzy6BjlIzG81fVo-73" value="EMAIL" style="text;html=1;strokeColor=none;fillColor=none;align=center;verticalAlign=middle;whiteSpace=wrap;rounded=0;fontSize=16;fontStyle=1" vertex="1" parent="1">
          <mxGeometry x="235" y="1025" width="170" height="30" as="geometry" />
        </mxCell>
        <mxCell id="T8nLrzzy6BjlIzG81fVo-74" value="WAAS" style="text;html=1;strokeColor=none;fillColor=none;align=center;verticalAlign=middle;whiteSpace=wrap;rounded=0;fontSize=16;fontStyle=1" vertex="1" parent="1">
          <mxGeometry x="565" y="1030" width="170" height="30" as="geometry" />
        </mxCell>
        <mxCell id="T8nLrzzy6BjlIzG81fVo-75" value="WEB" style="text;html=1;strokeColor=none;fillColor=none;align=center;verticalAlign=middle;whiteSpace=wrap;rounded=0;fontSize=16;fontStyle=1" vertex="1" parent="1">
          <mxGeometry x="405" y="1030" width="170" height="30" as="geometry" />
        </mxCell>
        <mxCell id="T8nLrzzy6BjlIzG81fVo-76" value="UC" style="text;html=1;strokeColor=none;fillColor=none;align=center;verticalAlign=middle;whiteSpace=wrap;rounded=0;fontSize=16;fontStyle=1" vertex="1" parent="1">
          <mxGeometry x="727" y="1030" width="170" height="30" as="geometry" />
        </mxCell>
        <mxCell id="T8nLrzzy6BjlIzG81fVo-77" value="FIREWALL" style="text;html=1;strokeColor=none;fillColor=none;align=center;verticalAlign=middle;whiteSpace=wrap;rounded=0;fontSize=16;fontStyle=1" vertex="1" parent="1">
          <mxGeometry x="900" y="1030" width="170" height="30" as="geometry" />
        </mxCell>
        <mxCell id="T8nLrzzy6BjlIzG81fVo-78" value="" style="endArrow=none;html=1;rounded=0;strokeWidth=5;entryX=0.571;entryY=1.036;entryDx=0;entryDy=0;entryPerimeter=0;" edge="1" parent="1">
          <mxGeometry width="50" height="50" relative="1" as="geometry">
            <mxPoint x="320" y="1077" as="sourcePoint" />
            <mxPoint x="999.94" y="1082.04" as="targetPoint" />
            <Array as="points">
              <mxPoint x="320" y="1152" />
              <mxPoint x="1000" y="1152" />
            </Array>
          </mxGeometry>
        </mxCell>
        <mxCell id="T8nLrzzy6BjlIzG81fVo-79" value="" style="endArrow=none;html=1;rounded=0;strokeWidth=4;" edge="1" parent="1">
          <mxGeometry width="50" height="50" relative="1" as="geometry">
            <mxPoint x="494.5" y="1155" as="sourcePoint" />
            <mxPoint x="494.5" y="1075" as="targetPoint" />
          </mxGeometry>
        </mxCell>
        <mxCell id="T8nLrzzy6BjlIzG81fVo-80" value="" style="endArrow=none;html=1;rounded=0;strokeWidth=4;" edge="1" parent="1">
          <mxGeometry width="50" height="50" relative="1" as="geometry">
            <mxPoint x="650" y="1155" as="sourcePoint" />
            <mxPoint x="650" y="1075" as="targetPoint" />
          </mxGeometry>
        </mxCell>
        <mxCell id="T8nLrzzy6BjlIzG81fVo-81" value="" style="endArrow=none;html=1;rounded=0;strokeWidth=4;" edge="1" parent="1">
          <mxGeometry width="50" height="50" relative="1" as="geometry">
            <mxPoint x="816.5" y="1153" as="sourcePoint" />
            <mxPoint x="816.5" y="1073" as="targetPoint" />
          </mxGeometry>
        </mxCell>
        <mxCell id="T8nLrzzy6BjlIzG81fVo-82" value="" style="endArrow=none;html=1;rounded=0;strokeWidth=4;" edge="1" parent="1">
          <mxGeometry width="50" height="50" relative="1" as="geometry">
            <mxPoint x="649.5" y="1230" as="sourcePoint" />
            <mxPoint x="649.5" y="1150" as="targetPoint" />
          </mxGeometry>
        </mxCell>
        <mxCell id="T8nLrzzy6BjlIzG81fVo-83" value="" style="image;aspect=fixed;perimeter=ellipsePerimeter;html=1;align=center;shadow=0;dashed=0;spacingTop=3;image=img/lib/active_directory/internet_cloud.svg;" vertex="1" parent="1">
          <mxGeometry x="-530" y="1100" width="210" height="132.3" as="geometry" />
        </mxCell>
        <mxCell id="T8nLrzzy6BjlIzG81fVo-84" value="FABRIC ENTERPRISE" style="text;html=1;align=center;verticalAlign=middle;whiteSpace=wrap;rounded=0;fontSize=16;fontStyle=1;fontColor=#FFFFFF;" vertex="1" parent="1">
          <mxGeometry x="-510" y="1151.15" width="170" height="30" as="geometry" />
        </mxCell>
        <mxCell id="T8nLrzzy6BjlIzG81fVo-85" value="" style="endArrow=none;html=1;rounded=0;strokeWidth=4;exitX=1.005;exitY=0.454;exitDx=0;exitDy=0;exitPerimeter=0;" edge="1" parent="1" source="T8nLrzzy6BjlIzG81fVo-83">
          <mxGeometry width="50" height="50" relative="1" as="geometry">
            <mxPoint x="-310" y="1160" as="sourcePoint" />
            <mxPoint x="-130" y="1160" as="targetPoint" />
          </mxGeometry>
        </mxCell>
        <mxCell id="T8nLrzzy6BjlIzG81fVo-87" value="X86 HOST" style="text;html=1;strokeColor=none;fillColor=none;align=center;verticalAlign=middle;whiteSpace=wrap;rounded=0;fontSize=16;fontStyle=1" vertex="1" parent="1">
          <mxGeometry x="860" y="1340" width="170" height="30" as="geometry" />
        </mxCell>
        <mxCell id="T8nLrzzy6BjlIzG81fVo-89" value="" style="shape=mxgraph.arrows.jump-in_arrow_1;html=1;verticalLabelPosition=bottom;verticalAlign=top;strokeWidth=2;strokeColor=#6c8ebf;fillColor=#dae8fc;" vertex="1" parent="1">
          <mxGeometry x="440.5" y="590" width="109.5" height="190" as="geometry" />
        </mxCell>
      </root>
    </mxGraphModel>
  </diagram>
</mxfile>
